<svg xmlns="http://www.w3.org/2000/svg" version="1.1" xmlns:xlink="http://www.w3.org/1999/xlink" xmlns:svgjs="http://svgjs.dev/svgjs" width="2000" height="1999" viewBox="0 0 2000 1999"><g transform="matrix(1,0,0,1,-0.431486880466764,-0.4312711370263287)"><svg viewBox="0 0 343 343" data-background-color="#ffffff" preserveAspectRatio="xMidYMid meet" height="1999" width="2000" xmlns="http://www.w3.org/2000/svg" xmlns:xlink="http://www.w3.org/1999/xlink"><g id="tight-bounds" transform="matrix(1,0,0,1,0.0740000000000407,0.07400000000001228)"><svg viewBox="0 0 342.85155851775386 342.85155851775386" height="342.85155851775386" width="342.85155851775386"><g><svg></svg></g><g><svg viewBox="0 0 342.85155851775386 342.85155851775386" height="342.85155851775386" width="342.85155851775386"><g><path d="M0 171.426c0-94.676 76.75-171.426 171.426-171.426 94.676 0 171.426 76.75 171.426 171.426 0 94.676-76.75 171.426-171.426 171.426-94.676 0-171.426-76.75-171.426-171.426zM171.426 338.846c92.464 0 167.42-74.957 167.42-167.42 0-92.464-74.957-167.42-167.42-167.421-92.464 0-167.42 74.957-167.421 167.421 0 92.464 74.957 167.42 167.421 167.42z" data-fill-palette-color="tertiary" fill="#556970" stroke="transparent"></path><ellipse rx="164.56874808852186" ry="164.56874808852186" cx="171.42577925887693" cy="171.42577925887693" fill="#556970" stroke="transparent" stroke-width="0" fill-opacity="1" data-fill-palette-color="tertiary"></ellipse></g><g transform="matrix(1,0,0,1,64.84655864529837,85.48874460305328)"><svg viewBox="0 0 213.1584412271571 171.8740693116473" height="171.8740693116473" width="213.1584412271571"><g><svg viewBox="0 0 213.1584412271571 171.8740693116473" height="171.8740693116473" width="213.1584412271571"><g><svg viewBox="0 0 213.1584412271571 171.8740693116473" height="171.8740693116473" width="213.1584412271571"><g transform="matrix(1,0,0,1,0,89.52455796288994)"><svg viewBox="0 0 213.1584412271571 82.34951134875737" height="82.34951134875737" width="213.1584412271571"><g id="textblocktransform"><svg viewBox="0 0 213.1584412271571 82.34951134875737" height="82.34951134875737" width="213.1584412271571" id="textblock"><g><svg viewBox="0 0 213.1584412271571 44.41539146656198" height="44.41539146656198" width="213.1584412271571"><g transform="matrix(1,0,0,1,0,0)"><svg width="213.1584412271571" viewBox="4.5 -37 180.44 37.6" height="44.41539146656198" data-palette-color="#ffffff"><path d="M9 0L4.5 0 4.5-35 11.15-35 20.85-12.85 30.4-35 37.2-35 37.2 0 32.45 0 32.45-28.95 23.1-7.9 18.4-7.9 9-28.95 9 0ZM50.2 0L45.7 0 45.7-26 50.05-26 50.05-20.35Q50.7-22 51.8-23.43 52.9-24.85 54.55-25.73 56.2-26.6 58.4-26.6L58.4-26.6Q59.15-26.6 59.9-26.53 60.65-26.45 61.15-26.3L61.15-26.3 59.8-21.65Q58.85-22.05 57.55-22.05L57.55-22.05Q55.7-22.05 54.02-21 52.35-19.95 51.27-17.75 50.2-15.55 50.2-12.15L50.2-12.15 50.2 0ZM94.59 0.6L94.59 0.6Q90.04 0.6 86.54-1.58 83.04-3.75 81.09-7.78 79.14-11.8 79.14-17.35L79.14-17.35Q79.14-22.7 81.12-26.83 83.09-30.95 86.72-33.27 90.34-35.6 95.19-35.6L95.19-35.6Q97.69-35.6 99.74-35.13 101.79-34.65 103.59-33.8L103.59-33.8 102.14-29.8Q100.59-30.55 98.97-31 97.34-31.45 95.14-31.45L95.14-31.45Q91.94-31.45 89.42-29.8 86.89-28.15 85.44-25.05 83.99-21.95 83.99-17.55L83.99-17.55Q83.99-13.35 85.42-10.2 86.84-7.05 89.37-5.3 91.89-3.55 95.14-3.55L95.14-3.55Q97.59-3.55 99.39-4.15 101.19-4.75 102.89-5.7L102.89-5.7 104.34-1.75Q102.49-0.75 100.12-0.08 97.74 0.6 94.59 0.6ZM118.79 0.6L118.79 0.6Q115.54 0.6 112.89-1.05 110.24-2.7 108.67-5.73 107.09-8.75 107.09-12.85L107.09-12.85Q107.09-16.75 108.67-19.85 110.24-22.95 113.02-24.78 115.79-26.6 119.39-26.6L119.39-26.6Q121.64-26.6 123.47-25.83 125.29-25.05 126.64-23.9L126.64-23.9 126.64-26 130.74-26 130.74-6.3Q130.74-4.4 131.67-3.83 132.59-3.25 133.69-3.25L133.69-3.25 132.74 0.25Q127.94 0.25 126.94-3.65L126.94-3.65Q125.79-2.05 123.82-0.73 121.84 0.6 118.79 0.6ZM119.79-3.4L119.79-3.4Q121.69-3.4 123.39-4.33 125.09-5.25 126.24-6.65L126.24-6.65 126.24-20.6Q124.89-21.55 123.27-22.13 121.64-22.7 119.84-22.7L119.84-22.7Q117.44-22.7 115.62-21.48 113.79-20.25 112.74-18.07 111.69-15.9 111.69-13L111.69-13Q111.69-10.2 112.74-8.03 113.79-5.85 115.64-4.63 117.49-3.4 119.79-3.4ZM146.69 0.6L146.69 0.6Q143.74 0.6 141.36-0.15 138.99-0.9 137.44-2.1L137.44-2.1 139.34-5.85Q140.64-4.75 142.61-4.03 144.59-3.3 146.84-3.3L146.84-3.3Q149.64-3.3 151.06-4.23 152.49-5.15 152.49-6.6L152.49-6.6Q152.49-7.65 151.96-8.45 151.44-9.25 150.04-10.03 148.64-10.8 145.99-11.7L145.99-11.7Q142.34-12.95 140.51-14.68 138.69-16.4 138.69-19.45L138.69-19.45Q138.69-22.45 141.31-24.53 143.94-26.6 148.59-26.6L148.59-26.6Q151.09-26.6 153.04-26.08 154.99-25.55 156.54-24.75L156.54-24.75 155.29-21.05Q153.94-21.85 152.21-22.35 150.49-22.85 148.39-22.85L148.39-22.85Q145.79-22.85 144.44-21.8 143.09-20.75 143.09-19.5L143.09-19.5Q143.09-18.3 144.14-17.45 145.19-16.6 148.24-15.6L148.24-15.6Q153.19-13.95 155.14-11.95 157.09-9.95 157.09-6.95L157.09-6.95Q157.09-3.45 154.26-1.43 151.44 0.6 146.69 0.6ZM167.59 0L163.09 0 163.09-37 167.59-37 167.59-21.85Q168.99-23.9 171.14-25.25 173.29-26.6 176.19-26.6L176.19-26.6Q180.59-26.6 182.76-23.95 184.94-21.3 184.94-16.95L184.94-16.95 184.94 0 180.44 0 180.44-16.45Q180.44-19.25 179.14-20.95 177.84-22.65 175.49-22.65L175.49-22.65Q173.19-22.65 171.11-21.03 169.04-19.4 167.59-17.2L167.59-17.2 167.59 0Z" opacity="1" transform="matrix(1,0,0,1,0,0)" fill="#ffffff" class="wordmark-text-0" data-fill-palette-color="quaternary" id="text-0"></path></svg></g></svg></g><g transform="matrix(1,0,0,1,0,54.90079942242207)"><svg viewBox="0 0 213.1584412271571 27.448711926335307" height="27.448711926335307" width="213.1584412271571"><g transform="matrix(1,0,0,1,0,0)"><svg width="213.1584412271571" viewBox="4 -35.01 349.61 45.019999999999996" height="27.448711926335307" data-palette-color="#ffffff"><path d="M23.71-8.59L23.71-8.59Q23.71-6.81 23.03-5.25 22.36-3.69 21.19-2.51 20.02-1.34 18.44-0.67 16.87 0 15.09 0L15.09 0 4 0 4-35.01 15.09-35.01Q16.87-35.01 18.44-34.34 20.02-33.67 21.19-32.5 22.36-31.32 23.03-29.75 23.71-28.17 23.71-26.39L23.71-26.39 23.71-26.05Q23.71-24.8 23.38-23.67 23.05-22.53 22.44-21.56 21.83-20.58 21-19.79 20.17-18.99 19.14-18.46L19.14-18.46Q20.17-17.92 21-17.13 21.83-16.33 22.44-15.34 23.05-14.36 23.38-13.22 23.71-12.08 23.71-10.84L23.71-10.84 23.71-8.59ZM20.56-8.59L20.56-11.35Q20.56-12.52 20.12-13.54 19.68-14.55 18.91-15.31 18.14-16.06 17.13-16.5 16.11-16.94 14.94-16.94L14.94-16.94 7.15-16.94 7.15-3 14.94-3Q16.11-3 17.13-3.44 18.14-3.88 18.91-4.64 19.68-5.4 20.12-6.41 20.56-7.42 20.56-8.59L20.56-8.59ZM20.56-25.56L20.56-26.39Q20.56-27.56 20.12-28.58 19.68-29.59 18.91-30.36 18.14-31.13 17.13-31.57 16.11-32.01 14.94-32.01L14.94-32.01 7.15-32.01 7.15-19.95 14.94-19.95Q16.11-19.95 17.13-20.39 18.14-20.83 18.91-21.59 19.68-22.36 20.12-23.38 20.56-24.39 20.56-25.56L20.56-25.56ZM57.08-6.86L57.08-6.86Q57.08-5.35 56.51-4 55.93-2.66 54.93-1.66 53.93-0.66 52.59-0.09 51.25 0.49 49.73 0.49L49.73 0.49 47.73 0.49Q46.22 0.49 44.87-0.09 43.53-0.66 42.53-1.66 41.53-2.66 40.95-4 40.38-5.35 40.38-6.86L40.38-6.86 40.38-18.14Q40.38-19.65 40.95-21 41.53-22.34 42.53-23.34 43.53-24.34 44.87-24.91 46.22-25.49 47.73-25.49L47.73-25.49 49.73-25.49Q51.25-25.49 52.59-24.91 53.93-24.34 54.93-23.34 55.93-22.34 56.51-21 57.08-19.65 57.08-18.14L57.08-18.14 57.08-12.26 43.38-12.26 43.38-6.69Q43.38-5.79 43.73-4.99 44.07-4.2 44.65-3.61 45.24-3.03 46.03-2.69 46.83-2.34 47.73-2.34L47.73-2.34 49.73-2.34Q50.63-2.34 51.43-2.69 52.22-3.03 52.81-3.61 53.39-4.2 53.74-4.99 54.08-5.79 54.08-6.69L54.08-6.69 54.08-8.35 57.08-7.86 57.08-6.86ZM54.08-14.6L54.08-18.31Q54.08-19.21 53.74-20.01 53.39-20.8 52.81-21.39 52.22-21.97 51.43-22.31 50.63-22.66 49.73-22.66L49.73-22.66 47.73-22.66Q46.83-22.66 46.03-22.31 45.24-21.97 44.65-21.39 44.07-20.8 43.73-20.01 43.38-19.21 43.38-18.31L43.38-18.31 43.38-14.6 54.08-14.6ZM91.94-6.35L91.94-6.35Q91.94-4.83 91.33-3.58 90.72-2.32 89.67-1.42 88.62-0.51 87.24-0.01 85.86 0.49 84.35 0.49L84.35 0.49 82.35 0.49Q80.83 0.49 79.46-0.09 78.08-0.66 77.04-1.66 76-2.66 75.38-4 74.76-5.35 74.76-6.86L74.76-6.86 74.76-7.86 77.76-8.35 77.76-6.69Q77.76-5.79 78.14-4.99 78.52-4.2 79.15-3.61 79.78-3.03 80.62-2.69 81.45-2.34 82.35-2.34L82.35-2.34 84.35-2.34Q85.25-2.34 86.08-2.61 86.91-2.88 87.56-3.38 88.21-3.88 88.59-4.59 88.96-5.3 88.96-6.2L88.96-6.2Q88.96-7.54 88.38-8.4 87.79-9.25 86.83-9.83 85.86-10.4 84.63-10.78 83.4-11.16 82.1-11.54 80.81-11.91 79.58-12.4 78.34-12.89 77.38-13.68 76.42-14.48 75.83-15.67 75.24-16.87 75.24-18.65L75.24-18.65Q75.24-20.17 75.83-21.42 76.42-22.68 77.42-23.58 78.42-24.49 79.75-24.99 81.08-25.49 82.59-25.49L82.59-25.49 84.35-25.49Q85.86-25.49 87.21-24.91 88.55-24.34 89.55-23.34 90.55-22.34 91.13-21 91.7-19.65 91.7-18.14L91.7-18.14 91.7-18.04 88.7-17.55 88.7-18.31Q88.7-19.21 88.35-20.01 88.01-20.8 87.43-21.39 86.84-21.97 86.05-22.31 85.25-22.66 84.35-22.66L84.35-22.66 82.59-22.66Q81.69-22.66 80.9-22.39 80.1-22.12 79.52-21.62 78.93-21.12 78.59-20.41 78.25-19.7 78.25-18.8L78.25-18.8Q78.25-17.5 78.83-16.69 79.42-15.87 80.38-15.31 81.35-14.75 82.58-14.37 83.81-13.99 85.09-13.59 86.38-13.18 87.61-12.67 88.84-12.16 89.81-11.35 90.77-10.55 91.36-9.34 91.94-8.13 91.94-6.35ZM121.22 0L118.48 0Q117.11 0 115.91-0.51 114.7-1.03 113.81-1.93 112.91-2.83 112.39-4.03 111.86-5.22 111.86-6.59L111.86-6.59 111.86-22.14 107.37-22.14 107.37-25 111.86-25 111.86-31.01 114.87-31.49 114.87-25 121.22-25 121.22-22.14 114.87-22.14 114.87-6.45Q114.87-5.69 115.15-5.04 115.43-4.39 115.92-3.91 116.41-3.42 117.07-3.14 117.72-2.86 118.48-2.86L118.48-2.86 121.22-2.86 121.22 0ZM172.92-32.15L170.17-32.15Q169.41-32.15 168.76-31.87 168.11-31.59 167.63-31.1 167.14-30.62 166.86-29.96 166.58-29.3 166.58-28.54L166.58-28.54 166.58-25 172.41-25 172.41-22.14 166.58-22.14 166.58 0 163.57 0 163.57-22.14 159.06-22.14 159.06-25 163.57-25 163.57-28.39Q163.57-29.76 164.09-30.97 164.6-32.18 165.5-33.08 166.41-33.98 167.6-34.5 168.8-35.01 170.17-35.01L170.17-35.01 172.92-35.01 172.92-32.15ZM204.3-6.86L204.3-6.86Q204.3-5.35 203.72-4 203.15-2.66 202.15-1.66 201.15-0.66 199.8-0.09 198.46 0.49 196.95 0.49L196.95 0.49 194.95 0.49Q193.43 0.49 192.09-0.09 190.75-0.66 189.75-1.66 188.74-2.66 188.17-4 187.6-5.35 187.6-6.86L187.6-6.86 187.6-18.14Q187.6-19.65 188.17-21 188.74-22.34 189.75-23.34 190.75-24.34 192.09-24.91 193.43-25.49 194.95-25.49L194.95-25.49 196.95-25.49Q198.46-25.49 199.8-24.91 201.15-24.34 202.15-23.34 203.15-22.34 203.72-21 204.3-19.65 204.3-18.14L204.3-18.14 204.3-6.86ZM201.29-6.69L201.29-18.31Q201.29-19.21 200.95-20.01 200.61-20.8 200.02-21.39 199.44-21.97 198.64-22.31 197.85-22.66 196.95-22.66L196.95-22.66 194.95-22.66Q194.04-22.66 193.25-22.31 192.46-21.97 191.87-21.39 191.28-20.8 190.94-20.01 190.6-19.21 190.6-18.31L190.6-18.31 190.6-6.69Q190.6-5.79 190.94-4.99 191.28-4.2 191.87-3.61 192.46-3.03 193.25-2.69 194.04-2.34 194.95-2.34L194.95-2.34 196.95-2.34Q197.85-2.34 198.64-2.69 199.44-3.03 200.02-3.61 200.61-4.2 200.95-4.99 201.29-5.79 201.29-6.69L201.29-6.69ZM232.32-22.14L229.32-22.14Q228.42-22.14 227.62-21.8 226.83-21.46 226.24-20.87 225.66-20.29 225.32-19.49 224.97-18.7 224.97-17.8L224.97-17.8 224.97 0 221.97 0 221.97-25 222.97-25 224.61-22.46Q225.63-23.85 227.18-24.67 228.73-25.49 230.57-25.49L230.57-25.49 232.32-25.49 232.32-22.14ZM287.87-25L275.22 10.01 272.31 10.01 276.76-2.15 268.65-25 271.65-25 278.17-6.05 278.27-4.76 278.37-6.05 284.86-25 287.87-25ZM319.24-6.86L319.24-6.86Q319.24-5.35 318.66-4 318.09-2.66 317.09-1.66 316.09-0.66 314.74-0.09 313.4 0.49 311.89 0.49L311.89 0.49 309.89 0.49Q308.37 0.49 307.03-0.09 305.69-0.66 304.69-1.66 303.69-2.66 303.11-4 302.54-5.35 302.54-6.86L302.54-6.86 302.54-18.14Q302.54-19.65 303.11-21 303.69-22.34 304.69-23.34 305.69-24.34 307.03-24.91 308.37-25.49 309.89-25.49L309.89-25.49 311.89-25.49Q313.4-25.49 314.74-24.91 316.09-24.34 317.09-23.34 318.09-22.34 318.66-21 319.24-19.65 319.24-18.14L319.24-18.14 319.24-6.86ZM316.23-6.69L316.23-18.31Q316.23-19.21 315.89-20.01 315.55-20.8 314.96-21.39 314.38-21.97 313.59-22.31 312.79-22.66 311.89-22.66L311.89-22.66 309.89-22.66Q308.98-22.66 308.19-22.31 307.4-21.97 306.81-21.39 306.22-20.8 305.88-20.01 305.54-19.21 305.54-18.31L305.54-18.31 305.54-6.69Q305.54-5.79 305.88-4.99 306.22-4.2 306.81-3.61 307.4-3.03 308.19-2.69 308.98-2.34 309.89-2.34L309.89-2.34 311.89-2.34Q312.79-2.34 313.59-2.69 314.38-3.03 314.96-3.61 315.55-4.2 315.89-4.99 316.23-5.79 316.23-6.69L316.23-6.69ZM353.61 0L352.61 0 350.95-2.54Q349.93-1.15 348.39-0.33 346.85 0.49 345.02 0.49L345.02 0.49 344.26 0.49Q342.75 0.49 341.41-0.09 340.06-0.66 339.06-1.66 338.06-2.66 337.49-4 336.91-5.35 336.91-6.86L336.91-6.86 336.91-25 339.92-25 339.92-6.69Q339.92-5.79 340.26-4.99 340.6-4.2 341.19-3.61 341.77-3.03 342.56-2.69 343.36-2.34 344.26-2.34L344.26-2.34 346.26-2.34Q347.17-2.34 347.96-2.69 348.75-3.03 349.34-3.61 349.93-4.2 350.27-4.99 350.61-5.79 350.61-6.69L350.61-6.69 350.61-25 353.61-25 353.61 0Z" opacity="1" transform="matrix(1,0,0,1,0,0)" fill="#ffffff" class="slogan-text-1" data-fill-palette-color="quaternary" id="text-1"></path></svg></g></svg></g></svg></g></svg></g><g transform="matrix(1,0,0,1,40.713262274387006,0)"><svg viewBox="0 0 131.7319166783831 79.03915000702986" height="79.03915000702986" width="131.7319166783831"><g><svg xmlns="http://www.w3.org/2000/svg" xmlns:xlink="http://www.w3.org/1999/xlink" version="1.1" x="0" y="0" viewBox="5 23 90 54" enable-background="new 0 0 100 100" xml:space="preserve" height="79.03915000702986" width="131.7319166783831" class="icon-icon-0" data-fill-palette-color="quaternary" id="icon-0"><g fill="#ffffff" data-fill-palette-color="quaternary"><path d="M5 23V61.6H95V23zM15.3 57.7C15.2 54.3 12.4 51.5 8.9 51.5V33.3C12.5 33.3 15.3 30.4 15.3 26.9H42.9C37.1 29.6 33 35.5 33 42.3 33 49.2 37.1 55 42.9 57.7zM91.1 51.6C87.8 51.7 85.1 54.4 85 57.7H57.1C62.9 55 67 49.1 67 42.3 67 35.4 62.9 29.6 57.1 26.9H85C85 30.4 87.7 33.2 91.2 33.3V51.6z" fill="#ffffff" data-fill-palette-color="quaternary"></path><circle cx="21.6" cy="42.3" r="3.9" fill="#ffffff" data-fill-palette-color="quaternary"></circle><circle cx="78.5" cy="42.3" r="3.9" fill="#ffffff" data-fill-palette-color="quaternary"></circle><rect x="5" y="64.1" width="90" height="2.6" fill="#ffffff" data-fill-palette-color="quaternary"></rect><rect x="5" y="69.3" width="90" height="2.6" fill="#ffffff" data-fill-palette-color="quaternary"></rect><rect x="5" y="74.4" width="90" height="2.6" fill="#ffffff" data-fill-palette-color="quaternary"></rect></g></svg></g></svg></g><g></g></svg></g></svg></g></svg></g></svg></g><defs></defs></svg><rect width="342.85155851775386" height="342.85155851775386" fill="none" stroke="none" visibility="hidden"></rect></g></svg></g></svg>